<?xml version="1.0" standalone="no"?>
<!DOCTYPE svg PUBLIC "-//W3C//DTD SVG 20010904//EN"
 "http://www.w3.org/TR/2001/REC-SVG-20010904/DTD/svg10.dtd">
<svg version="1.0" xmlns="http://www.w3.org/2000/svg"
 width="820.000000pt" height="200.000000pt" viewBox="0 0 820.000000 200.000000"
 preserveAspectRatio="xMidYMid meet">

<g transform="translate(0.000000,200.000000) scale(0.100000,-0.100000)"
fill="#000000" stroke="none">
<path d="M6091 1748 c-22 -18 -71 -58 -108 -89 -37 -31 -158 -118 -268 -192
l-200 -136 -7 119 c-9 160 -27 222 -74 250 -31 19 -45 22 -107 18 -82 -6 -152
-34 -248 -99 -120 -81 -162 -131 -123 -146 11 -4 37 15 82 60 154 152 320 169
360 37 7 -25 16 -104 19 -175 l6 -130 -119 -90 c-234 -177 -437 -370 -566
-540 -59 -77 -73 -104 -60 -117 20 -20 53 6 114 90 124 174 296 345 514 511
l109 83 5 -209 c4 -185 7 -212 26 -248 62 -120 195 -86 337 85 32 39 37 42 37
22 0 -13 12 -34 26 -48 25 -26 61 -29 107 -9 14 6 16 4 10 -11 -5 -14 -3 -16
11 -11 10 4 28 7 41 7 19 0 33 16 72 82 69 118 223 270 223 220 0 -4 -20 -47
-45 -95 -46 -89 -54 -131 -34 -170 17 -31 28 -37 73 -37 34 0 46 7 87 49 l48
50 6 -30 c4 -16 20 -38 36 -50 60 -42 133 -2 211 117 23 35 44 62 46 59 6 -6
-15 -157 -26 -186 -8 -20 -27 -31 -93 -53 -240 -82 -339 -154 -339 -246 1 -62
39 -90 122 -90 124 0 259 114 353 296 21 42 49 80 71 96 20 15 47 42 61 60 32
42 83 143 83 163 0 31 -17 13 -46 -47 -25 -55 -109 -157 -119 -146 -2 2 0 21
5 43 15 62 13 235 -2 235 -43 -1 -59 -15 -95 -89 -38 -78 -135 -191 -163 -191
-72 1 -47 117 52 247 44 58 119 113 154 113 14 0 33 -13 48 -32 19 -24 28 -30
37 -21 8 8 8 16 0 32 -27 50 -131 67 -206 32 -56 -25 -121 -102 -180 -212 -54
-100 -111 -169 -140 -169 -34 0 -14 84 55 225 35 72 66 134 68 139 3 5 -11 6
-32 3 -46 -7 -138 -63 -207 -125 l-53 -47 28 50 c16 28 41 67 57 87 16 20 29
39 29 42 0 3 -18 6 -39 6 -50 0 -69 -22 -147 -167 -91 -172 -136 -223 -179
-207 -27 11 -16 59 45 202 33 78 60 150 60 161 0 18 -6 21 -50 21 -48 0 -50
-1 -44 -24 7 -28 -18 -101 -67 -199 -115 -228 -263 -288 -308 -124 -7 23 -15
126 -18 228 l-6 186 99 70 c55 38 175 121 268 184 169 114 296 219 296 245 0
24 -37 15 -79 -18z m588 -1050 c-94 -178 -288 -317 -353 -252 -19 18 -19 24
-5 61 14 37 54 79 105 109 37 22 238 103 257 104 4 0 2 -10 -4 -22z"/>
<path d="M1855 1753 c-100 -24 -250 -119 -348 -222 -105 -110 -161 -222 -166
-333 -4 -98 14 -151 71 -208 47 -46 128 -75 189 -67 168 22 323 228 262 347
-21 40 -78 65 -125 54 -42 -9 -29 -28 20 -32 55 -4 77 -34 70 -95 -13 -109
-105 -215 -210 -241 -71 -17 -167 41 -194 116 -29 80 -5 219 56 326 69 118
239 264 365 311 157 59 245 3 245 -156 0 -121 -106 -437 -231 -692 -75 -150
-76 -160 -23 -161 38 0 61 32 129 185 88 197 151 316 240 450 89 133 177 233
223 252 30 13 36 12 53 -2 29 -28 31 -67 9 -192 -27 -152 -95 -354 -171 -505
-64 -127 -65 -148 -13 -148 32 0 44 15 126 160 79 140 206 334 279 426 62 78
165 175 209 196 87 42 80 -25 -28 -272 -99 -227 -125 -312 -126 -405 0 -79 16
-118 64 -158 30 -26 129 -53 156 -43 27 10 14 26 -21 26 -124 0 -153 122 -83
340 25 78 81 213 138 334 51 108 65 203 35 236 -44 48 -150 5 -261 -106 -59
-59 -210 -250 -296 -374 -19 -28 -23 -45 43 175 20 68 31 133 36 202 6 99 5
101 -20 127 -33 33 -99 35 -156 7 -68 -35 -206 -203 -270 -329 -12 -24 -25
-42 -27 -39 -3 3 7 43 21 89 32 100 44 236 25 302 -13 48 -58 99 -103 115 -28
11 -153 13 -192 4z"/>
<path d="M3959 1495 c-31 -17 -70 -73 -124 -178 -38 -76 -39 -77 -77 -77 -27
0 -38 -4 -38 -15 0 -10 10 -15 30 -15 17 0 30 -2 30 -5 0 -3 -18 -57 -40 -121
-57 -166 -127 -275 -166 -260 -27 10 -12 72 45 192 28 59 51 117 51 130 0 23
-3 24 -77 24 l-77 0 28 29 c47 49 31 144 -21 127 -16 -5 -26 -30 -46 -109 -47
-181 -176 -411 -221 -394 -15 6 -17 14 -13 44 7 39 65 168 97 213 l20 28 -30
6 c-50 9 -72 -10 -135 -117 -70 -118 -126 -180 -158 -175 -52 7 -19 126 65
235 80 105 156 145 197 104 25 -25 44 -27 39 -5 -11 58 -120 73 -206 30 -131
-66 -228 -295 -161 -380 38 -48 101 -29 162 50 l37 47 0 -35 c0 -50 32 -88 74
-88 61 0 156 131 221 303 14 38 22 47 42 47 32 0 63 -17 63 -35 0 -7 -18 -49
-41 -92 -62 -120 -61 -195 4 -217 37 -13 88 14 127 67 l29 39 6 -36 c18 -91
115 -101 190 -19 32 35 35 36 35 15 0 -13 12 -34 26 -48 25 -26 61 -29 107 -9
14 6 16 4 10 -11 -5 -14 -3 -16 11 -11 10 4 28 7 41 7 19 0 33 16 72 82 69
118 223 270 223 220 0 -4 -20 -47 -45 -95 -46 -89 -54 -131 -34 -170 16 -30
28 -37 71 -37 50 0 97 42 154 139 41 70 54 111 37 111 -5 0 -26 -33 -48 -72
-46 -82 -104 -148 -130 -148 -34 0 -14 84 55 225 35 72 66 134 68 139 3 5 -11
6 -32 3 -46 -7 -138 -63 -207 -125 l-53 -47 28 50 c16 28 41 67 57 87 16 20
29 39 29 42 0 3 -18 6 -39 6 -50 0 -69 -22 -151 -177 -73 -136 -104 -181 -138
-194 -29 -11 -52 4 -52 32 0 11 30 89 66 174 36 85 62 160 59 165 -3 6 -29 10
-56 10 -46 0 -49 -2 -40 -19 8 -14 3 -39 -23 -104 -75 -190 -171 -297 -217
-241 -11 13 -10 29 4 97 15 73 21 85 65 131 27 28 64 72 81 99 29 43 35 47 71
47 29 0 40 4 40 15 0 10 -10 15 -30 15 -16 0 -30 2 -30 4 0 2 16 37 35 77 43
93 53 149 30 172 -20 20 -41 21 -76 2z m26 -146 c-15 -35 -33 -74 -41 -86 -16
-26 -54 -31 -54 -8 0 21 56 132 89 175 l26 35 3 -26 c2 -15 -9 -56 -23 -90z
m-81 -151 c-19 -34 -77 -108 -81 -105 -2 3 6 30 19 61 19 45 27 56 46 56 16 0
21 -4 16 -12z"/>
<path d="M4075 1354 c-10 -10 -15 -29 -13 -48 2 -26 8 -32 31 -34 51 -6 88 53
55 86 -17 17 -54 15 -73 -4z"/>
<path d="M5964 1345 c-14 -21 -15 -31 -5 -51 16 -36 69 -31 91 8 20 36 5 62
-38 66 -24 3 -34 -3 -48 -23z"/>
</g>
</svg>
